<svg width="185" height="48" viewBox="0 0 185 48" fill="none" xmlns="http://www.w3.org/2000/svg">
<path d="M1.5 47.24L0 39.24L184.5 39.74L1.5 47.24Z" fill="white"/>
<path d="M34.772 31.68C32.2787 31.68 29.844 31.2253 27.468 30.316C25.092 29.3773 22.98 28.0573 21.132 26.356L24.784 21.78C26.5733 23.364 28.2893 24.508 29.932 25.212C31.604 25.916 33.364 26.268 35.212 26.268C36.5027 26.268 37.6173 26.1213 38.556 25.828C39.4947 25.5053 40.2133 25.0507 40.712 24.464C41.24 23.8773 41.504 23.188 41.504 22.396C41.504 21.34 41.1227 20.5333 40.36 19.976C39.5973 19.3893 38.292 18.9347 36.444 18.612L30.328 17.556C27.7173 17.116 25.7227 16.192 24.344 14.784C22.9947 13.376 22.32 11.5573 22.32 9.328C22.32 7.42133 22.804 5.764 23.772 4.356C24.7693 2.948 26.1627 1.87733 27.952 1.144C29.7707 0.381334 31.9267 0 34.42 0C36.6787 0 38.9227 0.381334 41.152 1.144C43.4107 1.90667 45.4053 2.96267 47.136 4.312L43.704 9.064C40.4773 6.6 37.236 5.368 33.98 5.368C32.836 5.368 31.8387 5.51467 30.988 5.808C30.1373 6.10133 29.4773 6.512 29.008 7.04C28.568 7.53867 28.348 8.14 28.348 8.844C28.348 9.78267 28.6853 10.516 29.36 11.044C30.0347 11.5427 31.164 11.924 32.748 12.188L38.556 13.156C41.636 13.6547 43.9387 14.6373 45.464 16.104C46.9893 17.5413 47.752 19.448 47.752 21.824C47.752 23.8187 47.224 25.564 46.168 27.06C45.112 28.5267 43.6013 29.6707 41.636 30.492C39.7 31.284 37.412 31.68 34.772 31.68Z" fill="white"/>
<path d="M62.3573 31.592C59.8053 31.592 57.8693 31.02 56.5493 29.876C55.2586 28.7027 54.6133 27.0013 54.6133 24.772V13.332H49.9053V8.316H54.6133V2.464L60.6413 1.1V8.316H67.1973V13.332H60.6413V23.54C60.6413 24.596 60.8759 25.3587 61.3453 25.828C61.8146 26.268 62.6359 26.488 63.8093 26.488C64.396 26.488 64.924 26.4587 65.3933 26.4C65.8919 26.312 66.4346 26.1653 67.0213 25.96V30.932C66.4053 31.1373 65.6279 31.2987 64.6893 31.416C63.7799 31.5333 63.0026 31.592 62.3573 31.592Z" fill="white"/>
<path d="M82.0559 31.68C79.7679 31.68 77.6999 31.152 75.8519 30.096C74.0039 29.04 72.5372 27.6173 71.4519 25.828C70.3666 24.0387 69.8239 22.0293 69.8239 19.8C69.8239 17.5707 70.3519 15.5613 71.4079 13.772C72.4932 11.9533 73.9599 10.516 75.8079 9.46C77.6852 8.404 79.7679 7.876 82.0559 7.876C84.3439 7.876 86.4119 8.404 88.2599 9.46C90.1372 10.516 91.6039 11.9533 92.6599 13.772C93.7452 15.5613 94.2879 17.5707 94.2879 19.8C94.2879 22.0293 93.7452 24.0387 92.6599 25.828C91.6039 27.6173 90.1519 29.04 88.3039 30.096C86.4559 31.152 84.3732 31.68 82.0559 31.68ZM82.0559 26.444C83.2586 26.444 84.3292 26.1507 85.2679 25.564C86.2359 24.9773 86.9986 24.1853 87.5559 23.188C88.1426 22.1613 88.4359 21.032 88.4359 19.8C88.4359 18.5387 88.1426 17.4093 87.5559 16.412C86.9986 15.4147 86.2359 14.6227 85.2679 14.036C84.3292 13.42 83.2586 13.112 82.0559 13.112C80.8826 13.112 79.8119 13.42 78.8439 14.036C77.8759 14.6227 77.1132 15.4147 76.5559 16.412C75.9986 17.4093 75.7199 18.5387 75.7199 19.8C75.7199 21.032 75.9986 22.1613 76.5559 23.188C77.1132 24.1853 77.8759 24.9773 78.8439 25.564C79.8119 26.1507 80.8826 26.444 82.0559 26.444Z" fill="white"/>
<path d="M98.9932 31.24V8.316H105.021V10.868C105.755 9.87067 106.635 9.108 107.661 8.58C108.688 8.052 109.847 7.788 111.137 7.788C112.252 7.81733 113.088 7.99333 113.645 8.316V13.596C113.205 13.3907 112.721 13.244 112.193 13.156C111.665 13.0387 111.123 12.98 110.565 12.98C109.392 12.98 108.321 13.2733 107.353 13.86C106.385 14.4467 105.608 15.2827 105.021 16.368V31.24H98.9932Z" fill="white"/>
<path d="M128.228 31.68C125.94 31.68 123.872 31.152 122.024 30.096C120.176 29.04 118.709 27.6173 117.624 25.828C116.538 24.0387 115.996 22.0293 115.996 19.8C115.996 17.5707 116.524 15.5613 117.58 13.772C118.665 11.9533 120.132 10.516 121.98 9.46C123.857 8.404 125.94 7.876 128.228 7.876C130.516 7.876 132.584 8.404 134.432 9.46C136.309 10.516 137.776 11.9533 138.832 13.772C139.917 15.5613 140.46 17.5707 140.46 19.8C140.46 22.0293 139.917 24.0387 138.832 25.828C137.776 27.6173 136.324 29.04 134.476 30.096C132.628 31.152 130.545 31.68 128.228 31.68ZM128.228 26.444C129.43 26.444 130.501 26.1507 131.44 25.564C132.408 24.9773 133.17 24.1853 133.728 23.188C134.314 22.1613 134.608 21.032 134.608 19.8C134.608 18.5387 134.314 17.4093 133.728 16.412C133.17 15.4147 132.408 14.6227 131.44 14.036C130.501 13.42 129.43 13.112 128.228 13.112C127.054 13.112 125.984 13.42 125.016 14.036C124.048 14.6227 123.285 15.4147 122.728 16.412C122.17 17.4093 121.892 18.5387 121.892 19.8C121.892 21.032 122.17 22.1613 122.728 23.188C123.285 24.1853 124.048 24.9773 125.016 25.564C125.984 26.1507 127.054 26.444 128.228 26.444Z" fill="white"/>
<path d="M156.341 31.68C154.053 31.68 151.985 31.152 150.137 30.096C148.289 29.04 146.822 27.6173 145.737 25.828C144.652 24.0387 144.109 22.0293 144.109 19.8C144.109 17.5707 144.637 15.5613 145.693 13.772C146.778 11.9533 148.245 10.516 150.093 9.46C151.97 8.404 154.053 7.876 156.341 7.876C158.629 7.876 160.697 8.404 162.545 9.46C164.422 10.516 165.889 11.9533 166.945 13.772C168.03 15.5613 168.573 17.5707 168.573 19.8C168.573 22.0293 168.03 24.0387 166.945 25.828C165.889 27.6173 164.437 29.04 162.589 30.096C160.741 31.152 158.658 31.68 156.341 31.68ZM156.341 26.444C157.544 26.444 158.614 26.1507 159.553 25.564C160.521 24.9773 161.284 24.1853 161.841 23.188C162.428 22.1613 162.721 21.032 162.721 19.8C162.721 18.5387 162.428 17.4093 161.841 16.412C161.284 15.4147 160.521 14.6227 159.553 14.036C158.614 13.42 157.544 13.112 156.341 13.112C155.168 13.112 154.097 13.42 153.129 14.036C152.161 14.6227 151.398 15.4147 150.841 16.412C150.284 17.4093 150.005 18.5387 150.005 19.8C150.005 21.032 150.284 22.1613 150.841 23.188C151.398 24.1853 152.161 24.9773 153.129 25.564C154.097 26.1507 155.168 26.444 156.341 26.444Z" fill="white"/>
</svg>
